<?xml version="1.0" standalone="no"?>
<!DOCTYPE svg PUBLIC "-//W3C//DTD SVG 20010904//EN"
 "http://www.w3.org/TR/2001/REC-SVG-20010904/DTD/svg10.dtd">
<svg version="1.0" xmlns="http://www.w3.org/2000/svg"
 width="2350.000000pt" height="2350.000000pt" viewBox="0 0 2350.000000 2350.000000"
 preserveAspectRatio="xMidYMid meet">
<metadata>
Created by potrace 1.11, written by Peter Selinger 2001-2013
</metadata>
<g transform="translate(0.000000,2350.000000) scale(0.100000,-0.100000)"
fill="#000000" stroke="none">
<path d="M11157 23374 c-1 -1 -45 -5 -97 -8 -543 -38 -1060 -276 -1455 -671
-111 -111 -127 -130 -227 -263 -227 -303 -394 -715 -433 -1072 -3 -30 -8 -73
-10 -95 -16 -145 -2 -460 25 -600 6 -27 12 -61 15 -75 16 -87 15 -83 65 -242
201 -646 720 -1196 1360 -1444 79 -30 234 -79 285 -90 11 -2 31 -6 45 -9 109
-24 146 -30 235 -40 28 -3 66 -8 85 -10 51 -6 315 -6 385 0 62 6 232 31 275
40 14 4 36 8 50 11 14 2 32 7 40 10 8 3 26 8 40 10 118 22 408 144 571 241
209 123 384 267 570 470 142 155 307 423 402 653 36 85 100 289 110 345 3 17
12 64 21 105 13 66 20 120 32 235 5 57 5 320 -1 385 -7 78 -32 241 -45 290 -5
19 -11 46 -14 60 -40 205 -181 527 -325 740 -262 386 -639 691 -1061 857 -92
36 -141 53 -275 92 -16 5 -43 12 -60 15 -16 4 -41 9 -55 12 -62 14 -212 35
-285 40 -74 5 -265 11 -268 8z m353 -833 c243 -52 394 -114 581 -240 354 -238
584 -616 638 -1051 9 -65 6 -309 -3 -365 -13 -82 -18 -106 -36 -177 -88 -344
-312 -658 -611 -856 -159 -106 -362 -190 -518 -217 -19 -3 -37 -8 -41 -10 -27
-17 -310 -25 -425 -13 -260 28 -527 137 -740 302 -123 95 -270 257 -350 385
-38 61 -108 206 -130 266 -9 28 -20 57 -23 65 -3 8 -6 20 -7 25 -2 6 -10 37
-18 70 -33 125 -41 190 -41 340 -1 204 19 331 79 505 48 138 166 352 244 440
12 14 43 49 69 78 83 93 238 215 362 285 149 82 366 155 515 172 33 4 62 9 63
10 9 9 343 -4 392 -14z"/>
<path d="M17737 20334 c-1 -1 -49 -4 -107 -8 -58 -3 -118 -8 -135 -11 -61 -10
-91 -15 -130 -21 -22 -3 -67 -12 -100 -20 -33 -8 -71 -17 -84 -20 -81 -17
-287 -96 -417 -159 -712 -349 -1188 -1024 -1281 -1815 -5 -36 -8 -153 -8 -260
0 -212 8 -308 35 -440 6 -30 14 -66 16 -80 3 -14 19 -72 36 -130 173 -599 597
-1116 1148 -1402 192 -99 435 -185 600 -213 19 -3 42 -8 50 -10 69 -20 272
-38 420 -38 614 0 1191 237 1625 668 449 444 686 1011 687 1643 0 176 -8 259
-47 482 -17 96 -86 310 -138 430 -249 574 -701 1012 -1282 1243 -136 54 -365
116 -490 132 -16 2 -48 7 -70 9 -75 10 -322 25 -328 20z m228 -829 c27 -3 52
-8 55 -10 3 -2 25 -6 49 -10 72 -11 249 -72 344 -120 405 -202 683 -557 792
-1007 62 -262 30 -629 -78 -883 -205 -483 -648 -827 -1162 -901 -63 -9 -334
-9 -400 0 -41 5 -168 32 -235 50 -80 21 -291 119 -365 169 -249 169 -411 353
-536 607 -42 85 -91 220 -103 282 -2 13 -7 30 -10 38 -3 8 -8 31 -11 50 -2 19
-8 60 -12 90 -9 70 -9 285 0 370 17 146 87 365 160 499 190 349 480 594 852
716 55 18 117 36 139 39 21 3 41 8 45 10 3 2 38 7 76 11 39 4 71 8 73 10 5 5
278 -3 327 -10z"/>
<path d="M9907 18494 c-1 -1 -54 -5 -117 -8 -63 -4 -133 -8 -155 -11 -100 -11
-144 -16 -166 -20 -13 -3 -41 -7 -64 -10 -34 -5 -249 -48 -295 -59 -178 -43
-509 -150 -605 -196 -11 -5 -60 -25 -110 -45 -310 -126 -745 -374 -1043 -594
-119 -89 -359 -316 -512 -487 -30 -33 -73 -80 -95 -105 -283 -310 -673 -842
-934 -1274 -117 -193 -172 -291 -274 -485 -42 -80 -105 -201 -142 -270 -68
-130 -405 -806 -405 -814 0 -2 -25 -57 -56 -122 -135 -286 -357 -821 -490
-1179 -41 -110 -79 -210 -84 -223 -12 -28 -186 -548 -228 -682 -40 -126 -93
-298 -97 -319 -2 -9 -17 -61 -34 -116 -40 -137 -130 -475 -181 -680 -23 -93
-52 -213 -65 -265 -13 -52 -26 -108 -28 -125 -3 -16 -26 -120 -50 -230 -25
-110 -47 -213 -50 -230 -3 -16 -24 -122 -46 -235 -23 -113 -44 -218 -46 -235
-3 -16 -10 -52 -15 -80 -5 -27 -11 -61 -14 -75 -2 -14 -7 -43 -11 -65 -4 -22
-9 -49 -11 -60 -4 -22 -12 -66 -18 -108 -3 -15 -10 -53 -15 -85 -21 -117 -28
-168 -37 -277 -3 -44 -8 -93 -10 -110 -2 -16 -6 -73 -9 -125 -3 -52 -8 -111
-10 -130 -4 -37 -14 -192 -20 -320 -2 -41 -7 -142 -11 -225 -15 -304 -8 -1145
10 -1325 2 -19 7 -79 11 -133 3 -53 8 -106 10 -118 2 -11 6 -48 9 -82 7 -81
14 -137 26 -217 10 -66 20 -139 25 -175 9 -62 30 -173 70 -355 89 -411 265
-861 450 -1155 290 -458 697 -798 1191 -993 151 -60 369 -128 474 -148 14 -3
41 -9 60 -14 19 -5 51 -12 70 -15 19 -3 58 -10 85 -15 46 -8 65 -11 160 -25
90 -13 95 -13 265 -30 325 -31 802 -20 1080 25 30 5 82 12 115 16 33 3 62 8
65 9 3 2 26 6 50 10 25 3 52 8 60 10 8 2 31 7 50 10 19 3 105 22 190 41 85 19
164 37 175 39 215 47 982 297 1160 380 17 7 62 26 100 41 96 36 267 109 343
145 35 16 65 29 67 29 2 0 39 16 82 36 43 20 110 50 148 67 91 41 724 359 837
420 47 26 89 47 92 47 3 0 24 -28 47 -63 24 -34 55 -78 69 -97 15 -19 74 -98
131 -175 57 -77 109 -145 114 -151 6 -6 24 -29 40 -50 370 -475 907 -1045
1370 -1454 33 -29 76 -67 95 -84 102 -91 335 -280 520 -423 169 -129 498 -356
655 -452 39 -23 77 -46 85 -51 55 -35 231 -135 315 -180 55 -29 102 -54 104
-56 2 -2 -30 -1 -70 1 -41 2 -137 6 -214 10 -77 3 -178 8 -225 10 -47 2 -170
7 -275 10 -104 4 -228 8 -275 10 -74 3 -304 10 -730 20 -1013 25 -3105 25
-4025 0 -575 -16 -792 -22 -985 -30 -331 -12 -398 -15 -490 -20 -52 -2 -149
-7 -215 -10 -254 -12 -313 -15 -395 -20 -47 -3 -123 -7 -170 -10 -250 -15
-304 -19 -455 -30 -33 -3 -91 -7 -130 -10 -38 -3 -99 -7 -134 -10 -35 -3 -87
-7 -115 -9 -28 -3 -85 -8 -126 -11 -41 -4 -86 -8 -100 -10 -14 -2 -59 -7 -100
-10 -41 -3 -88 -8 -105 -10 -16 -2 -55 -7 -85 -10 -83 -8 -335 -40 -410 -51
-19 -3 -51 -8 -70 -10 -19 -3 -71 -11 -115 -19 -356 -63 -532 -123 -549 -188
-9 -34 11 -55 87 -91 100 -47 257 -86 507 -126 36 -6 76 -13 90 -15 44 -8 166
-24 221 -31 30 -3 65 -7 79 -10 14 -2 72 -8 130 -14 58 -6 121 -13 140 -15 70
-8 127 -14 195 -20 39 -3 86 -8 105 -10 19 -2 76 -7 125 -10 50 -4 101 -8 115
-10 14 -2 72 -7 130 -10 58 -3 119 -8 135 -10 17 -2 84 -7 150 -11 66 -4 136
-8 155 -9 19 -2 89 -6 155 -9 66 -4 152 -9 190 -11 39 -3 115 -7 170 -10 55
-3 138 -7 185 -10 73 -4 231 -10 465 -20 368 -15 873 -30 1315 -40 1096 -25
2872 -25 3875 0 259 6 598 16 715 20 58 2 189 6 293 10 103 3 224 8 270 10 45
2 150 7 232 10 167 6 278 12 435 20 58 4 141 8 185 10 44 3 114 7 155 9 41 3
125 8 185 11 61 4 130 9 155 10 25 2 91 6 148 10 57 3 112 8 122 10 10 2 65 6
122 10 57 3 114 8 128 10 14 2 61 7 105 10 122 9 156 12 210 19 28 3 79 8 115
11 36 4 76 8 90 10 14 2 52 7 85 10 62 6 83 9 170 20 28 4 62 9 78 11 330 42
603 100 725 155 74 33 93 50 95 86 2 21 -7 32 -37 53 -39 27 -134 67 -148 62
-17 -5 -7 16 10 21 31 10 162 86 261 150 408 268 697 590 926 1032 168 324
301 765 360 1195 3 25 8 56 10 70 2 14 7 53 10 87 4 35 8 75 10 90 2 16 7 75
10 133 4 58 9 125 11 150 4 55 4 627 0 730 -3 66 -14 240 -21 340 -6 76 -23
256 -30 310 -2 19 -7 64 -11 100 -3 36 -7 72 -9 80 -1 8 -6 42 -9 75 -4 33
-16 123 -27 200 -11 77 -22 156 -25 175 -2 19 -6 46 -9 60 -3 14 -8 42 -11 64
-3 21 -8 48 -10 60 -11 56 -16 83 -18 106 -2 14 -11 66 -20 115 -9 50 -18 104
-21 120 -3 17 -17 89 -31 160 -14 72 -28 141 -30 155 -3 14 -14 68 -25 120
-11 52 -25 118 -30 145 -6 28 -12 61 -15 74 -3 12 -12 53 -20 90 -9 36 -18 74
-20 84 -2 9 -6 27 -9 40 -3 12 -10 42 -15 67 -5 25 -23 104 -40 175 -18 72
-33 137 -35 145 -2 8 -15 61 -29 116 -15 56 -29 110 -31 120 -2 11 -13 53 -25
94 -20 75 -33 120 -111 385 -43 148 -184 579 -239 730 -121 337 -225 612 -241
639 -10 17 -2 33 41 76 3 3 50 54 105 115 55 60 105 114 111 120 9 8 90 98
215 240 75 84 247 283 325 376 57 67 235 286 259 318 11 15 62 84 113 152 158
209 349 502 473 724 73 131 89 161 98 180 5 11 43 90 84 175 82 170 162 369
226 556 39 116 113 391 125 464 3 19 10 58 15 87 6 29 13 74 16 100 4 26 8 58
10 69 27 167 21 508 -10 664 -3 14 -8 39 -11 55 -51 288 -214 572 -422 739
-271 217 -595 376 -895 441 -9 2 -20 6 -25 8 -4 3 -23 8 -42 11 -19 3 -60 10
-90 16 -30 6 -70 13 -89 16 -19 2 -46 6 -60 8 -14 3 -51 8 -81 11 -30 4 -68 8
-85 10 -188 23 -717 23 -895 1 -14 -2 -61 -7 -106 -10 -44 -4 -92 -9 -105 -11
-13 -2 -49 -6 -79 -9 -97 -9 -447 -66 -600 -97 -52 -11 -108 -22 -125 -25 -16
-3 -55 -11 -85 -19 -30 -8 -66 -16 -80 -19 -14 -2 -54 -12 -90 -21 -36 -9 -76
-18 -90 -21 -47 -10 -365 -95 -390 -105 -14 -5 -35 -11 -46 -13 -21 -4 -257
-76 -459 -140 -60 -19 -110 -34 -111 -33 -1 1 -14 22 -30 46 -49 75 -56 85
-164 236 -58 81 -109 155 -115 164 -5 9 -12 18 -15 21 -3 3 -34 45 -70 93
-166 224 -402 526 -515 658 -16 19 -41 49 -54 65 -43 52 -214 248 -257 294
-22 25 -65 72 -95 105 -87 96 -546 553 -648 645 -51 47 -99 90 -105 95 -144
131 -452 380 -656 531 -368 273 -668 434 -1045 562 -92 31 -296 87 -350 96
-16 2 -55 9 -85 15 -140 26 -219 36 -366 47 -88 6 -323 12 -327 8z m68 -1005
c72 -2 189 -14 315 -34 122 -19 396 -96 494 -139 31 -14 56 -23 56 -21 0 4
167 -72 235 -107 187 -96 392 -221 560 -342 40 -29 190 -141 205 -153 8 -7 43
-34 78 -62 326 -258 750 -667 1058 -1021 21 -25 41 -47 44 -50 45 -45 300
-361 432 -535 93 -122 134 -179 235 -326 66 -96 130 -191 142 -211 l23 -38
-24 -9 c-124 -47 -636 -299 -693 -341 -35 -25 -44 -19 -86 57 -126 229 -280
424 -534 678 -171 172 -340 316 -470 401 -171 111 -433 221 -616 258 -134 27
-180 31 -374 30 -183 -1 -240 -7 -430 -48 -50 -11 -249 -78 -260 -87 -5 -5
-15 -9 -23 -9 -19 0 -266 -121 -315 -154 -21 -14 -40 -26 -44 -26 -11 0 -200
-134 -293 -208 -133 -106 -356 -333 -484 -492 -99 -124 -267 -366 -312 -450
-10 -19 -24 -42 -30 -50 -24 -32 -140 -262 -200 -398 -78 -176 -213 -547 -229
-634 -2 -9 -13 -50 -24 -90 -11 -40 -23 -88 -26 -107 -3 -19 -8 -38 -10 -42
-3 -4 -12 -40 -20 -81 -8 -40 -16 -82 -18 -93 -8 -40 -20 -100 -22 -120 -2
-11 -8 -49 -14 -85 -6 -36 -13 -83 -16 -105 -3 -22 -7 -53 -10 -70 -2 -16 -7
-52 -10 -80 -3 -27 -7 -63 -10 -80 -2 -16 -7 -66 -10 -110 -4 -44 -8 -93 -10
-110 -19 -160 -25 -758 -11 -995 10 -176 21 -322 31 -400 1 -14 6 -59 10 -100
3 -41 8 -82 10 -90 2 -8 7 -40 10 -70 3 -30 8 -66 10 -80 7 -48 17 -115 20
-130 7 -39 17 -102 20 -123 1 -12 8 -49 13 -82 34 -186 44 -240 47 -245 2 -3
6 -25 10 -48 19 -128 175 -777 265 -1103 84 -302 201 -631 322 -899 12 -25 32
-70 45 -100 104 -235 354 -735 498 -995 18 -33 49 -89 68 -125 108 -201 371
-653 532 -915 54 -88 106 -174 117 -192 l19 -32 -33 -17 c-158 -83 -358 -176
-698 -324 -183 -80 -529 -217 -795 -315 -115 -42 -232 -85 -260 -96 -132 -49
-455 -155 -880 -289 -84 -27 -155 -45 -215 -56 -14 -3 -32 -7 -40 -9 -8 -3
-33 -7 -55 -10 -22 -3 -62 -10 -90 -15 -176 -32 -485 -43 -715 -26 -52 4 -97
9 -100 11 -3 2 -30 6 -60 9 -69 8 -98 13 -185 32 -38 9 -81 18 -94 20 -76 15
-338 111 -453 167 -224 109 -391 227 -555 393 -208 211 -310 378 -467 769 -85
210 -167 495 -191 660 -3 23 -7 50 -9 60 -2 11 -9 63 -15 115 -7 52 -14 109
-16 125 -28 194 -28 1952 0 2090 2 11 7 54 10 95 3 41 8 89 10 105 3 17 7 47
10 68 11 81 17 119 45 287 16 96 43 243 59 325 36 183 39 195 45 220 23 100
28 123 32 140 2 11 17 79 34 150 17 72 33 138 35 147 21 93 126 491 190 723
47 171 163 563 220 745 25 80 47 152 49 160 5 18 9 29 137 415 298 899 435
1246 694 1765 133 265 254 492 375 700 40 69 80 139 90 155 199 343 492 787
744 1125 111 150 342 439 426 534 273 308 500 531 675 663 347 261 716 443
1075 532 133 32 161 38 226 47 23 2 53 7 65 10 13 3 83 7 154 11 72 3 132 7
134 9 2 2 7 2 10 -1 4 -2 43 -5 86 -6z m1015 -2883 c118 -10 305 -65 441 -129
68 -33 196 -113 224 -140 6 -7 31 -28 55 -47 42 -34 167 -169 224 -244 87
-112 267 -423 265 -459 0 -6 -30 -37 -66 -67 -177 -147 -451 -439 -599 -640
-347 -470 -547 -936 -625 -1455 -5 -38 -12 -83 -15 -100 -3 -16 -7 -104 -9
-195 -4 -196 7 -303 46 -459 11 -42 22 -87 25 -100 8 -37 72 -207 106 -281 49
-109 69 -141 139 -236 273 -365 611 -609 919 -665 101 -18 117 -19 240 -20
118 -1 185 4 277 22 29 6 54 10 55 9 9 -4 222 77 277 105 245 124 511 413 651
708 62 129 103 285 125 472 4 28 8 61 10 74 11 66 18 234 18 401 -1 251 -11
385 -47 670 -6 46 -15 103 -26 170 -5 30 -12 73 -15 95 -4 22 -8 47 -10 55 -2
8 -7 31 -10 50 -3 19 -12 63 -20 98 -8 34 -17 77 -20 95 -3 17 -8 40 -11 49
-3 9 -7 25 -9 35 -14 68 -31 139 -71 288 -25 94 -48 177 -51 185 -3 8 -7 20
-8 25 -2 6 -21 62 -42 125 -28 83 -37 119 -29 126 28 25 197 116 316 168 36
16 88 39 115 51 157 71 296 117 470 156 l90 20 23 -28 c12 -15 35 -46 50 -68
15 -22 29 -42 32 -45 4 -3 26 -34 51 -70 24 -36 47 -67 50 -70 3 -3 80 -117
171 -255 389 -589 728 -1184 1088 -1905 141 -282 153 -307 302 -630 35 -75
231 -522 273 -624 l29 -69 -24 -19 c-14 -11 -41 -34 -60 -52 -19 -17 -82 -72
-140 -121 -58 -50 -107 -92 -110 -95 -3 -3 -52 -46 -110 -95 -58 -50 -110 -94
-116 -100 -43 -39 -87 -77 -139 -120 -33 -28 -65 -54 -71 -60 -25 -23 -492
-418 -538 -455 -10 -8 -26 -22 -35 -31 -18 -17 -727 -606 -835 -693 -21 -17
-44 -35 -50 -41 -6 -5 -47 -39 -91 -75 -44 -35 -82 -67 -85 -70 -3 -3 -61 -50
-130 -105 -69 -55 -131 -106 -138 -113 -8 -7 -30 -25 -50 -40 -21 -15 -39 -30
-42 -33 -3 -3 -156 -126 -340 -273 -184 -147 -342 -272 -350 -279 -8 -7 -35
-28 -60 -47 -25 -19 -47 -37 -50 -40 -6 -6 -271 -213 -575 -449 -110 -85 -204
-159 -210 -163 -37 -30 -57 -45 -81 -63 -15 -11 -59 -45 -98 -75 -86 -68 -211
-163 -508 -388 l-227 -172 -88 122 c-100 138 -352 502 -369 533 -6 11 -43 71
-83 133 -39 62 -71 115 -71 117 0 3 -17 33 -38 67 -36 59 -175 302 -237 413
-93 167 -375 731 -375 750 0 2 -18 41 -39 87 -52 111 -100 223 -151 349 -23
57 -45 113 -50 124 -4 11 -15 40 -25 65 -9 25 -22 56 -27 70 -24 60 -113 316
-150 430 -107 337 -187 654 -263 1045 -11 56 -54 320 -60 365 -3 25 -8 56 -10
70 -2 14 -7 50 -10 80 -4 30 -8 66 -10 80 -2 14 -6 54 -10 90 -3 36 -8 81 -10
100 -3 19 -7 67 -10 105 -9 139 -17 251 -21 295 -9 118 -3 522 10 656 49 504
157 962 331 1404 210 533 536 1033 811 1242 128 98 301 174 457 202 15 3 37 8
49 12 24 7 158 21 173 18 6 -2 35 -5 65 -8z m7065 -240 c253 -27 414 -83 564
-197 157 -118 239 -224 288 -374 41 -128 41 -308 -1 -503 -22 -102 -126 -382
-162 -437 -9 -14 -14 -25 -11 -25 6 0 -44 -128 -63 -162 -6 -10 -10 -23 -10
-29 0 -14 -136 -286 -190 -379 -254 -441 -576 -866 -975 -1288 -145 -154 -278
-283 -288 -279 -5 1 -19 27 -31 57 -61 148 -376 797 -509 1045 -29 55 -77 145
-106 200 -234 440 -764 1354 -1074 1854 -26 41 -44 78 -42 82 15 22 312 122
545 182 98 26 216 53 300 70 19 4 46 9 60 12 14 3 36 7 50 10 14 3 36 7 50 10
36 7 58 11 220 39 137 24 181 31 261 41 19 2 68 9 109 15 41 6 98 13 125 16
28 3 66 7 85 10 19 3 69 7 110 10 41 3 85 7 98 9 13 2 80 7 150 11 70 3 128 7
129 8 5 5 264 -2 318 -8z m-5436 -1958 c54 -167 116 -411 135 -533 3 -16 12
-70 20 -120 44 -260 55 -727 22 -900 -4 -23 -19 -115 -20 -130 -7 -59 -22 -99
-80 -216 -137 -276 -292 -328 -478 -160 -50 45 -156 181 -197 251 -120 207
-149 309 -155 549 -4 156 25 345 79 506 59 178 220 436 404 649 57 66 214 226
222 226 4 0 26 -55 48 -122z m4339 -3730 c89 -228 180 -507 295 -908 54 -187
139 -500 152 -560 2 -8 26 -105 53 -215 28 -110 60 -243 72 -295 11 -52 25
-111 30 -130 5 -19 19 -80 30 -135 12 -55 30 -138 40 -185 10 -47 21 -103 25
-125 3 -22 8 -48 11 -58 3 -11 7 -29 9 -40 1 -12 9 -58 18 -102 9 -44 19 -96
21 -115 3 -19 8 -46 10 -60 10 -50 45 -276 51 -320 3 -25 8 -56 10 -70 12 -66
16 -144 21 -370 2 -135 6 -285 8 -335 15 -370 19 -502 19 -655 1 -170 -9 -465
-17 -505 -2 -11 -7 -51 -10 -90 -11 -112 -72 -400 -111 -525 -86 -276 -228
-574 -363 -765 -183 -256 -445 -436 -736 -505 -178 -42 -440 -47 -646 -11 -30
5 -71 12 -90 16 -42 7 -269 64 -290 72 -8 4 -18 7 -22 7 -3 1 -10 4 -14 9 -4
4 -13 7 -21 7 -18 0 -248 83 -359 131 -172 73 -449 206 -599 288 -33 19 -89
49 -125 69 -176 96 -359 223 -595 411 -66 53 -127 103 -136 111 -8 8 -40 36
-71 62 -266 229 -708 667 -1034 1024 -191 210 -528 598 -679 782 -33 41 -79
97 -103 125 -23 28 -39 54 -35 58 5 3 118 89 253 190 135 100 250 187 255 191
6 5 132 101 280 214 149 112 277 210 285 217 9 6 54 41 100 77 47 35 87 67 90
70 3 3 61 48 130 100 159 121 943 730 1070 833 8 7 100 79 204 161 104 82 198
156 210 166 12 10 147 118 301 241 154 122 282 225 285 229 3 3 25 21 50 40
25 19 54 42 65 52 21 17 246 199 305 247 19 16 91 74 160 130 69 56 165 135
214 174 48 40 93 77 100 82 6 6 36 30 66 55 30 25 57 47 60 50 3 3 39 32 80
65 41 33 86 70 100 81 14 12 108 91 210 175 102 84 196 164 210 176 14 13 29
23 35 23 6 0 34 -60 63 -132z"/>
</g>
</svg>
